<svg width="97" height="76" viewBox="0 0 97 76" fill="none" xmlns="http://www.w3.org/2000/svg">
<path fill-rule="evenodd" clip-rule="evenodd" d="M4.55303 0.113062C2.84906 0.529872 1.2813 1.81477 0.469721 3.45954L0 4.4116V30.4028V56.3939L0.428174 57.2567C1.10164 58.6133 1.86731 59.415 3.16341 60.1205L4.36332 60.7734L35.4962 60.8238L66.629 60.8741L66.7557 62.2435C66.9343 64.1705 67.3511 65.6732 68.1968 67.4378C69.7173 70.6096 72.0291 72.9647 75.125 74.4954C77.6263 75.7319 78.8262 76 81.8597 76C84.8931 76 86.093 75.7319 88.5943 74.4954C90.6753 73.4664 92.5223 71.9654 93.8189 70.2492C97.6664 65.157 98.0578 58.3251 94.8073 52.9915L94.0959 51.824L94.0011 28.1178L93.9062 4.4116L93.2557 3.20725C92.5528 1.90636 91.7541 1.13786 90.4025 0.461895L89.5429 0.0321362L47.3325 0.00300327C24.1168 -0.0129913 4.86605 0.0365162 4.55303 0.113062ZM89.5647 3.47135C89.8529 3.68727 90.2645 4.10047 90.4797 4.3897C90.8688 4.91257 90.871 5.03272 90.9206 26.7935L90.9705 48.6714L89.7823 47.9242C83.3584 43.8839 74.6558 45.4125 69.9873 51.4013C68.827 52.8898 67.6117 55.284 67.2348 56.8241L66.9897 57.8254L35.9276 57.7761C4.88881 57.7268 4.86491 57.7264 4.3415 57.3342C4.05333 57.1182 3.64166 56.705 3.42653 56.4158C3.03668 55.892 3.03516 55.8002 2.98091 30.9125C2.95093 17.1749 2.97559 5.65898 3.03592 5.32157C3.17213 4.55841 3.96948 3.58559 4.73325 3.25066C5.21037 3.04159 12.6605 3.00427 47.1764 3.03797L89.0407 3.07872L89.5647 3.47135ZM10.5289 7.80225C9.59778 8.09682 8.00973 9.74731 7.72421 10.7173C7.40057 11.8171 7.40057 24.6158 7.72421 25.7156C8.03211 26.7615 9.60367 28.3389 10.6457 28.6479C11.2204 28.8183 14.4046 28.8795 22.706 28.8795C35.6024 28.8795 35.171 28.9267 36.5758 27.3585C37.0269 26.8548 37.4974 26.1029 37.6215 25.6874C37.9364 24.6325 37.9364 11.8003 37.6215 10.7454C37.4974 10.33 37.0269 9.57803 36.5758 9.07439C35.1672 7.50198 35.6206 7.55053 22.5891 7.57281C14.8607 7.58595 10.9792 7.65983 10.5289 7.80225ZM67.9384 7.75922C66.7502 8.04884 65.0343 9.06525 64.2 9.97371C63.7741 10.4375 63.1552 11.3896 62.8252 12.089C62.2814 13.2408 62.2247 13.5327 62.2247 15.1797C62.2247 16.8963 62.2646 17.0793 62.9333 18.4373C63.7866 20.1704 64.885 21.2499 66.6488 22.0884L67.916 22.6911H74.2811H80.6463L82.0797 21.9799C83.8065 21.1234 84.8819 20.021 85.7174 18.2507C86.2603 17.1004 86.3178 16.8057 86.3178 15.1698C86.3178 13.534 86.2603 13.2393 85.7174 12.089C84.8821 10.3195 83.8065 9.21625 82.0805 8.35978L80.6476 7.64859L74.6613 7.61413C71.3687 7.59509 68.3434 7.6604 67.9384 7.75922ZM25.7056 15.1698V19.7397H22.6703H19.6349V17.1606C19.6349 14.6759 19.6179 14.5641 19.1692 14.114C18.7036 13.6466 18.7031 13.6466 14.6162 13.6466H10.5289V12.5907C10.5289 11.7234 10.6122 11.4511 10.9946 11.0674L11.4602 10.6H18.583H25.7056V15.1698ZM34.346 11.0674C34.7284 11.4511 34.8117 11.7234 34.8117 12.5907V13.6466H31.7763H28.741V12.1233V10.6H31.3106C33.7861 10.6 33.8975 10.6171 34.346 11.0674ZM80.2251 10.8315C81.8555 11.315 83.3773 13.4095 83.3773 15.1698C83.3773 16.9302 81.8555 19.0247 80.2251 19.5082C79.1432 19.829 69.3993 19.829 68.3174 19.5082C67.2754 19.1991 65.7038 17.6218 65.3959 16.5758C64.8706 14.7911 65.2409 13.3682 66.5816 12.0195C67.1069 11.4913 67.8354 10.9644 68.2006 10.8488C69.1635 10.5442 79.2075 10.5297 80.2251 10.8315ZM16.5996 18.2164V19.7397H13.5642H10.5289V18.2164V16.6931H13.5642H16.5996V18.2164ZM34.8117 18.2164V19.7397H31.7763H28.741V18.2164V16.6931H31.7763H34.8117V18.2164ZM16.5996 24.3096V25.8329H14.03C11.5544 25.8329 11.4431 25.8157 10.9946 25.3654C10.6122 24.9817 10.5289 24.7095 10.5289 23.8421V22.7863H13.5642H16.5996V24.3096ZM34.8117 23.8421C34.8117 24.7095 34.7284 24.9817 34.346 25.3654L33.8804 25.8329H26.7576H19.6349V24.3096V22.7863H27.2233H34.8117V23.8421ZM7.95926 35.4401C7.66559 35.7347 7.49353 36.125 7.49353 36.4959C7.49353 36.8668 7.66559 37.2572 7.95926 37.5518L8.42481 38.0192H13.5642H18.7037L19.1692 37.5518C19.7854 36.9335 19.7854 36.0584 19.1692 35.4401L18.7037 34.9726H13.5642H8.42481L7.95926 35.4401ZM23.136 35.4401C22.8424 35.7347 22.6703 36.125 22.6703 36.4959C22.6703 36.8668 22.8424 37.2572 23.136 37.5518L23.6016 38.0192H28.741H33.8804L34.346 37.5518C34.6396 37.2572 34.8117 36.8668 34.8117 36.4959C34.8117 36.125 34.6396 35.7347 34.346 35.4401L33.8804 34.9726H28.741H23.6016L23.136 35.4401ZM38.3128 35.4401C38.0191 35.7347 37.847 36.125 37.847 36.4959C37.847 36.8668 38.0191 37.2572 38.3128 37.5518L38.7783 38.0192H43.9178H49.0572L49.5227 37.5518C49.8164 37.2572 49.9885 36.8668 49.9885 36.4959C49.9885 36.125 49.8164 35.7347 49.5227 35.4401L49.0572 34.9726H43.9178H38.7783L38.3128 35.4401ZM53.4895 35.4401C53.1959 35.7347 53.0238 36.125 53.0238 36.4959C53.0238 36.8668 53.1959 37.2572 53.4895 37.5518L53.9551 38.0192H59.0945H64.2339L64.6995 37.5518C64.9932 37.2572 65.1652 36.8668 65.1652 36.4959C65.1652 36.125 64.9932 35.7347 64.6995 35.4401L64.2339 34.9726H59.0945H53.9551L53.4895 35.4401ZM68.6663 35.4401C68.3726 35.7347 68.2006 36.125 68.2006 36.4959C68.2006 36.8668 68.3726 37.2572 68.6663 37.5518L69.1319 38.0192H74.2713H79.4107L79.8762 37.5518C80.1699 37.2572 80.342 36.8668 80.342 36.4959C80.342 36.125 80.1699 35.7347 79.8762 35.4401L79.4107 34.9726H74.2713H69.1319L68.6663 35.4401ZM7.95926 43.0565C7.66559 43.3511 7.49353 43.7415 7.49353 44.1124C7.49353 44.4833 7.66559 44.8736 7.95926 45.1682L8.42481 45.6357H18.1173H27.8097L28.2753 45.1682C28.5689 44.8736 28.741 44.4833 28.741 44.1124C28.741 43.7415 28.5689 43.3511 28.2753 43.0565L27.8097 42.5891H18.1173H8.42481L7.95926 43.0565ZM84.3965 48.9662C91.3567 50.4462 95.6753 58.0023 93.3674 64.6627C92.6985 66.5937 91.8317 67.9804 90.3884 69.4289C85.5831 74.252 78.1279 74.2511 73.2965 69.4266C68.5365 64.6732 68.543 57.0744 73.3112 52.2884C76.2562 49.3327 80.3501 48.1057 84.3965 48.9662ZM7.95926 50.673C7.66559 50.9676 7.49353 51.3579 7.49353 51.7288C7.49353 52.0998 7.66559 52.4901 7.95926 52.7847L8.42481 53.2521H14.3231H20.2213L20.6869 52.7847C21.3031 52.1664 21.3031 51.2913 20.6869 50.673L20.2213 50.2055H14.3231H8.42481L7.95926 50.673ZM84.0436 54.4422C83.3565 55.0391 77.3097 65.6051 77.308 66.2117C77.3049 67.3113 78.6839 68.0414 79.5522 67.3997C80.1754 66.9393 86.4049 56.1926 86.4095 55.57C86.4134 55.0266 85.4442 54.0138 84.9202 54.0138C84.7093 54.0138 84.3149 54.2065 84.0436 54.4422ZM75.8499 56.5251C75.6226 56.6353 75.3348 56.9724 75.2103 57.2738C74.6012 58.7497 76.4746 60.0074 77.5997 58.8778C78.8319 57.6413 77.4311 55.7577 75.8499 56.5251ZM86.1196 62.8593C85.8259 63.1539 85.6538 63.5442 85.6538 63.9152C85.6538 64.6492 86.3941 65.4385 87.0826 65.4385C87.6908 65.4385 88.6892 64.4919 88.6892 63.9152C88.6892 63.3384 87.6908 62.3919 87.0826 62.3919C86.8075 62.3919 86.3772 62.6006 86.1196 62.8593Z" fill="#0C6D45"/>
</svg>
