<svg width="83" height="83" viewBox="0 0 83 83" fill="none" xmlns="http://www.w3.org/2000/svg">
<g clip-path="url(#clip0_106_772)">
<path d="M81.7817 64.1019H75.132L72.2684 62.1195C67.681 58.9433 61.6825 58.4193 56.6133 60.7526L53.0937 62.3725H45.5814C41.9832 62.3725 39.0194 65.1349 38.6957 68.6501L22.1986 64.2311C20.0001 63.6415 17.6762 64.6978 16.6738 66.7412C16.0824 67.9467 16.0265 69.3541 16.5204 70.6027C17.0143 71.8512 18.018 72.8396 19.274 73.3141L30.2075 77.4455C30.345 77.4976 30.4908 77.5244 30.6379 77.5244C30.9231 77.5246 31.1994 77.4247 31.4185 77.2421C31.6376 77.0595 31.7857 76.8057 31.837 76.5251C31.8883 76.2445 31.8395 75.9548 31.6991 75.7065C31.5587 75.4582 31.3356 75.2671 31.0687 75.1664L20.1353 71.0349C19.5108 70.7988 19.0316 70.3269 18.786 69.7062C18.5404 69.0853 18.5672 68.4134 18.8613 67.8142C19.3525 66.8129 20.4909 66.2957 21.5685 66.5841L40.3244 71.6081C40.574 71.694 40.8409 71.7428 41.1194 71.7428H55.1686C55.8415 71.7428 56.3868 71.1974 56.3868 70.5245C56.3868 69.8516 55.8415 69.3063 55.1686 69.3063H41.1194C41.1147 69.3062 41.1102 69.3044 41.1069 69.3011C41.1036 69.2977 41.1017 69.2933 41.1017 69.2886C41.1017 66.8182 43.1114 64.8085 45.5816 64.8085H53.3607C53.5366 64.8085 53.7104 64.7704 53.8701 64.6969L57.6321 62.9652C61.9224 60.9905 66.9993 61.4339 70.8815 64.122L74.0582 66.3212C74.2619 66.4624 74.5038 66.538 74.7515 66.5379H80.5637V77.0295H74.319C74.2484 77.0295 74.1779 77.0356 74.1083 77.0478L56.8881 80.0742C51.1554 81.0808 45.2574 80.5268 39.8124 78.4703L35.638 76.893C35.3367 76.783 35.0042 76.7962 34.7126 76.9299C34.421 77.0635 34.1939 77.3067 34.0805 77.6068C33.9671 77.9068 33.9767 78.2394 34.107 78.5325C34.2374 78.8256 34.4781 79.0554 34.7768 79.1721L38.9513 80.7494C44.8053 82.9607 51.1463 83.5564 57.3097 82.4739L74.4254 79.4658H81.7819C81.9419 79.4659 82.1003 79.4344 82.2481 79.3731C82.396 79.3119 82.5303 79.2222 82.6434 79.1091C82.7565 78.9959 82.8463 78.8616 82.9075 78.7138C82.9687 78.566 83.0002 78.4076 83.0002 78.2476V65.3197C83 64.9966 82.8716 64.6869 82.6431 64.4585C82.4146 64.2301 82.1048 64.1019 81.7817 64.1019ZM47.575 45.8649C47.735 45.865 47.8935 45.8335 48.0413 45.7722C48.1891 45.711 48.3234 45.6213 48.4365 45.5082C48.5497 45.395 48.6394 45.2607 48.7006 45.1129C48.7618 44.9651 48.7933 44.8067 48.7933 44.6467V43.7993C50.7889 43.2872 52.0679 41.5802 52.3508 39.8969C52.7159 37.7256 51.537 35.7636 49.4173 35.0141C49.2087 34.9405 49.0007 34.8653 48.7933 34.7885V31.0079C49.194 31.1632 49.428 31.3591 49.4476 31.3761C49.5654 31.487 49.7041 31.5734 49.8556 31.6301C50.0072 31.6868 50.1685 31.7128 50.3302 31.7065C50.4919 31.7003 50.6507 31.6618 50.7974 31.5935C50.944 31.5252 51.0756 31.4283 51.1845 31.3086C51.2933 31.1888 51.3772 31.0486 51.4313 30.8961C51.4853 30.7436 51.5085 30.5818 51.4993 30.4202C51.4902 30.2587 51.449 30.1006 51.3781 29.9551C51.3071 29.8097 51.208 29.6798 51.0863 29.5731C51.0332 29.5241 50.1858 28.7611 48.7933 28.4808V27.8295C48.7933 27.1565 48.248 26.6112 47.575 26.6112C46.9021 26.6112 46.3568 27.1565 46.3568 27.8295V28.5653C46.2866 28.5838 46.2161 28.6024 46.1448 28.6238C44.7148 29.0547 43.647 30.275 43.3579 31.8091C43.0926 33.2172 43.5502 34.58 44.552 35.3656C45.0213 35.7339 45.5931 36.0716 46.3568 36.4222V41.4658C45.8252 41.388 45.4234 41.2032 44.7845 40.7854C44.5141 40.6134 44.1869 40.5549 43.8737 40.6224C43.5605 40.69 43.2865 40.8783 43.1111 41.1464C42.9357 41.4146 42.873 41.741 42.9366 42.0551C43.0002 42.3691 43.1849 42.6455 43.4508 42.8243C44.5509 43.5439 45.3517 43.8203 46.3568 43.913V44.6465C46.3568 44.8065 46.3882 44.965 46.4494 45.1128C46.5106 45.2606 46.6004 45.395 46.7135 45.5081C46.8266 45.6213 46.961 45.711 47.1088 45.7722C47.2566 45.8335 47.415 45.865 47.575 45.8649ZM48.7931 37.3876C50.0553 37.9345 50.0257 39.0307 49.948 39.4929C49.8407 40.1311 49.4485 40.8014 48.7931 41.1882V37.3876ZM46.0558 33.4487C45.7766 33.2298 45.6575 32.7633 45.7523 32.2601C45.8194 31.9038 46.0112 31.4944 46.3568 31.2162V33.662C46.2533 33.5954 46.1528 33.5243 46.0558 33.4487Z" fill="#0C6D45"/>
<path d="M22.3599 43.9038C22.635 46.716 23.5987 49.1324 25.2482 51.1239C29.097 55.7711 36.4274 58.0301 47.6582 58.0301C51.1207 58.0301 54.2621 57.8069 56.9951 57.3669C57.153 57.3415 57.3044 57.2853 57.4406 57.2013C57.5768 57.1174 57.6951 57.0075 57.7888 56.8778C57.8825 56.7482 57.9497 56.6013 57.9866 56.4457C58.0236 56.29 58.0295 56.1286 58.004 55.9707C57.8972 55.3067 57.2729 54.8539 56.6078 54.9617C54.0025 55.3811 50.9913 55.5938 47.6584 55.5938C37.3437 55.5938 30.4352 53.5671 27.1248 49.5698C25.6835 47.8296 24.8903 45.7166 24.7338 43.179C24.7377 43.0961 24.7331 43.013 24.7201 42.9311C24.6572 41.5306 24.7841 40.0031 25.0994 38.3394C25.9425 33.8917 27.8486 29.6728 30.7646 25.7991C31.1223 25.3914 31.4586 24.9656 31.7721 24.5231C33.6382 22.2707 35.4979 20.5913 36.8706 19.4872L41.6054 21.206C43.2157 21.7929 44.9774 21.8168 46.603 21.2739C48.2287 20.731 49.6224 19.6532 50.5569 18.2164H56.6376C56.6715 18.2164 56.7049 18.2148 56.7386 18.2138C57.5232 18.747 59.8869 20.4512 62.4312 23.2418C65.2672 26.3523 68.9201 31.4964 70.2175 38.3394C71.0092 42.5143 70.5805 45.9447 68.9432 48.5355C67.4362 50.9202 64.8251 52.7232 61.1819 53.8944C61.0296 53.9433 60.8884 54.0218 60.7664 54.1253C60.6444 54.2289 60.5441 54.3554 60.471 54.4977C60.398 54.64 60.3537 54.7953 60.3406 54.9548C60.3276 55.1142 60.3461 55.2747 60.3951 55.427C60.5996 56.0733 61.3046 56.4196 61.9276 56.2137C66.1293 54.863 69.1824 52.7176 71.0028 49.8371C72.9805 46.7076 73.5216 42.6865 72.6114 37.8853C71.2013 30.4488 67.2452 24.8911 64.1747 21.5382C62.3113 19.5034 60.5574 18.0223 59.3541 17.1001C60.0667 16.3975 60.5096 15.4218 60.5096 14.3442C60.5096 12.5499 59.2824 11.0369 57.6234 10.5997L59.7657 4.9505C59.9755 4.39727 60.0478 3.80139 59.9765 3.21404C59.9052 2.62669 59.6924 2.06542 59.3563 1.57846C59.0201 1.09157 58.5707 0.693559 58.0468 0.418621C57.5228 0.143683 56.9399 3.06423e-05 56.3482 0L38.9683 0C38.3767 2.27783e-06 37.7939 0.143654 37.27 0.418612C36.7461 0.69357 36.2968 1.09161 35.9607 1.57854C35.6246 2.06546 35.4117 2.62671 35.3404 3.21406C35.2691 3.8014 35.3414 4.39728 35.5512 4.9505L36.6014 7.71949C31.4824 5.1447 25.303 5.77239 20.8072 9.34139C20.5608 9.54445 20.404 9.83612 20.3705 10.1536C20.3369 10.4712 20.4293 10.7892 20.6279 11.0392C20.8264 11.2893 21.1151 11.4514 21.432 11.4908C21.7489 11.5301 22.0685 11.4435 22.3221 11.2496C26.1139 8.23969 31.3416 7.73391 35.6399 9.96178L48.6351 16.6965C48.0236 17.7319 47.069 18.5208 45.9369 18.9262C44.8048 19.3316 43.5664 19.328 42.4367 18.9161L34 15.8532C33.8284 15.7909 33.6451 15.768 33.4635 15.7861C33.2818 15.8042 33.1066 15.8629 32.9507 15.9577C32.7948 16.0527 32.6623 16.1815 32.5628 16.3345C32.4634 16.4876 32.3996 16.661 32.3762 16.842C32.3724 16.8707 31.9826 19.7504 30.1112 22.6344C30.0116 22.7872 29.9091 22.938 29.8036 23.0868C29.5259 23.4809 29.2269 23.8595 28.908 24.2209C28.895 24.2357 28.883 24.2512 28.8707 24.2665C26.4391 26.997 23.0823 28.3787 18.8632 28.3787C18.5401 28.3787 18.2302 28.5071 18.0018 28.7355C17.7733 28.964 17.645 29.2739 17.645 29.597C17.645 29.9201 17.7733 30.2299 18.0018 30.4584C18.2302 30.6869 18.5401 30.8152 18.8632 30.8152C21.5165 30.8152 23.7249 30.3221 25.5622 29.5469C24.2104 32.2163 23.252 35.0043 22.7057 37.8856C22.4907 39.0197 22.3578 40.1088 22.3045 41.1532L18.5546 39.282C15.7669 37.8913 12.6471 37.156 9.53203 37.156H2.4365V17.7541H13.7031C13.9781 17.7541 14.2451 17.661 14.4605 17.49L18.5027 14.281C18.6295 14.1821 18.7354 14.059 18.8144 13.9189C18.8933 13.7788 18.9438 13.6244 18.9628 13.4647C18.9818 13.305 18.969 13.1431 18.9252 12.9884C18.8813 12.8337 18.8072 12.6891 18.7072 12.5632C18.6072 12.4372 18.4833 12.3323 18.3425 12.2545C18.2018 12.1767 18.047 12.1275 17.8872 12.1098C17.7273 12.0921 17.5655 12.1062 17.4112 12.1514C17.2568 12.1965 17.1129 12.2718 16.9878 12.3728L13.2782 15.3177H1.21825C1.05826 15.3177 0.899837 15.3492 0.752022 15.4104C0.604207 15.4716 0.4699 15.5614 0.35677 15.6745C0.243641 15.7876 0.153906 15.9219 0.0926905 16.0697C0.0314752 16.2176 -2.12828e-05 16.376 1.07896e-08 16.536V38.374C-2.12828e-05 38.534 0.0314752 38.6925 0.0926905 38.8403C0.153906 38.9881 0.243641 39.1224 0.35677 39.2355C0.4699 39.3487 0.604207 39.4384 0.752022 39.4996C0.899837 39.5608 1.05826 39.5923 1.21825 39.5923H9.53187C12.2714 39.5923 15.0152 40.2388 17.4666 41.4619L22.3599 43.9038ZM37.9657 2.96255C38.0767 2.79924 38.2263 2.6658 38.4012 2.57403C38.5761 2.48225 38.7708 2.43496 38.9683 2.43634H56.3482C57.1752 2.4104 57.805 3.32243 57.4872 4.08645L55.0656 10.4721H41.92L39.8424 9.39537L37.8292 4.08645C37.7579 3.90231 37.7331 3.70345 37.7569 3.50743C37.7807 3.31142 37.8524 3.12428 37.9657 2.96255ZM46.6214 12.9086H56.6371C57.4289 12.9086 58.0728 13.5527 58.0728 14.3442C58.0728 15.1358 57.4287 15.7799 56.6371 15.7799H50.9213C50.708 15.2556 50.3153 14.8243 49.8133 14.5628L46.6214 12.9086Z" fill="#0C6D45"/>
</g>
<defs>
<clipPath id="clip0_106_772">
<rect width="83" height="83" fill="white"/>
</clipPath>
</defs>
</svg>
