<svg width="112" height="86" viewBox="0 0 112 86" fill="none" xmlns="http://www.w3.org/2000/svg">
<path d="M32.8722 17.3359C32.8722 17.6316 32.9894 17.9149 33.1976 18.1237C33.4056 18.3324 33.6874 18.4498 33.9812 18.4506H62.5222L62.5296 18.4508C62.7581 18.4548 62.9851 18.4128 63.1971 18.3271C63.4091 18.2415 63.6018 18.1139 63.7636 17.9519C63.9255 17.79 64.0531 17.597 64.1389 17.3844C64.2226 17.177 64.2648 16.9551 64.263 16.7315C64.2355 16.3295 64.0572 15.9528 63.764 15.6772C63.4668 15.3978 63.0741 15.2435 62.667 15.2455L62.6629 15.2455L36.0707 15.2455V1.70549L36.071 1.69499C36.0773 1.44447 36.0286 1.19566 35.9284 0.966113C35.8294 0.739348 35.6826 0.536907 35.4981 0.37263C35.2113 0.133338 34.8503 0.00164135 34.4771 1.52397e-05C34.1013 -0.00162243 33.7367 0.128776 33.4467 0.3688L33.446 0.369415L0.575926 27.8121C0.395845 27.9623 0.250725 28.1506 0.15118 28.3634C0.0516317 28.5762 0 28.8084 0 29.0435C0 29.2786 0.0516317 29.5107 0.15118 29.7235C0.250725 29.9363 0.395722 30.1245 0.575802 30.2748L9.71191 37.9028L9.72258 37.9123C9.88271 38.0556 10.0699 38.1651 10.2731 38.2343C10.4762 38.3035 10.6911 38.331 10.905 38.3154C11.1189 38.2997 11.3276 38.241 11.5185 38.1429C11.7094 38.0448 11.8788 37.9091 12.0164 37.7439C12.154 37.5787 12.2571 37.3874 12.3193 37.1814C12.3816 36.9753 12.4018 36.7588 12.3787 36.5447C12.3555 36.3306 12.2896 36.1234 12.1848 35.9355C12.08 35.7476 11.9386 35.5829 11.769 35.451L11.7575 35.442L4.09491 29.0434L32.8722 5.01943V17.3359Z" fill="#0C6D45"/>
<path d="M32.8713 42.2161L32.8712 42.217L32.8713 53.0677L21.4879 43.5632C21.2057 43.3228 20.848 43.1899 20.478 43.1876C20.1489 43.1874 19.8276 43.2885 19.5576 43.4775C19.2871 43.6668 19.0812 43.9351 18.9683 44.2461C18.8553 44.5572 18.8409 44.8956 18.927 45.2152C19.0131 45.5347 19.1954 45.8196 19.4488 46.0313L33.446 57.7175L33.447 57.7184C33.7369 57.9582 34.1014 58.0886 34.4771 58.0869C34.8503 58.0853 35.2114 57.9536 35.4982 57.7142C35.6826 57.55 35.8294 57.3476 35.9284 57.1208C36.0286 56.8913 36.0773 56.6425 36.071 56.3919L36.0707 56.3814V44.3049L78.1241 44.3049L78.125 44.3049C78.4196 44.3038 78.7021 44.1862 78.9108 43.9773C79.1195 43.7685 79.2376 43.4853 79.2389 43.1894L79.2389 43.1877L79.2389 32.3381L90.6373 41.8459C90.9627 42.0858 91.3667 42.1935 91.7681 42.1473C92.1756 42.1004 92.5499 41.8984 92.8132 41.5827C93.0766 41.2669 93.2088 40.8615 93.1819 40.4505C93.1554 40.0457 92.9768 39.6665 92.6828 39.389L78.665 27.6878L78.6633 27.6864C78.3784 27.4516 78.0221 27.3215 77.6536 27.3176C77.2878 27.3136 76.9314 27.4341 76.6428 27.6594C76.4489 27.8231 76.294 28.0283 76.1895 28.2601C76.0836 28.4952 76.0325 28.7514 76.04 29.0093L76.0404 29.0215V41.0997L33.986 41.0997L33.9851 41.0997C33.6906 41.1009 33.4081 41.2184 33.1993 41.4274C32.9905 41.6364 32.8724 41.9198 32.8713 42.2161Z" fill="#0C6D45"/>
<path d="M79.1278 68.6641C79.1278 68.3684 79.0106 68.0851 78.8024 67.8763C78.5944 67.6676 78.3126 67.5502 78.0188 67.5494H49.4778L49.4704 67.5492C49.2419 67.5452 49.0149 67.5872 48.8029 67.6729C48.5909 67.7585 48.3982 67.8861 48.2364 68.0481C48.0745 68.21 47.9469 68.403 47.8611 68.6156C47.7774 68.823 47.7352 69.0449 47.737 69.2685C47.7645 69.6705 47.9428 70.0472 48.236 70.3228C48.5332 70.6022 48.9259 70.7565 49.333 70.7545L49.3371 70.7545L75.9293 70.7545V84.2945L75.929 84.305C75.9227 84.5555 75.9714 84.8043 76.0716 85.0339C76.1706 85.2607 76.3174 85.4631 76.5018 85.6274C76.7887 85.8667 77.1497 85.9984 77.5229 86C77.8987 86.0016 78.2633 85.8712 78.5533 85.6312L78.554 85.6306L111.424 58.1879C111.604 58.0377 111.749 57.8494 111.849 57.6366C111.948 57.4238 112 57.1916 112 56.9565C112 56.7214 111.948 56.4893 111.849 56.2765C111.749 56.0637 111.604 55.8755 111.424 55.7252L102.288 48.0972L102.277 48.0877C102.117 47.9444 101.93 47.8349 101.727 47.7657C101.524 47.6965 101.309 47.669 101.095 47.6846C100.881 47.7003 100.672 47.759 100.482 47.8571C100.291 47.9552 100.121 48.0909 99.9836 48.2561C99.846 48.4213 99.743 48.6126 99.6807 48.8186C99.6184 49.0247 99.5982 49.2412 99.6213 49.4553C99.6445 49.6694 99.7104 49.8766 99.8152 50.0645C99.92 50.2524 100.061 50.4171 100.231 50.549L100.243 50.558L107.905 56.9566L79.1278 80.9806V68.6641Z" fill="#0C6D45"/>
</svg>
