<svg width="74" height="87" viewBox="0 0 74 87" fill="none" xmlns="http://www.w3.org/2000/svg">
<path d="M53.6154 65.3258V82.4735C53.6154 83.8688 52.4842 85 51.0889 85H4.52637C3.13104 85 2 83.8688 2 82.4735V27.2745" stroke="#0C6D45" stroke-width="3.15515" stroke-miterlimit="10" stroke-linecap="round" stroke-linejoin="round"/>
<path d="M40.201 13.022H51.0894C52.4847 13.022 53.6159 14.1532 53.6159 15.5486V32.6959" stroke="#0C6D45" stroke-width="3.15515" stroke-miterlimit="10" stroke-linecap="round" stroke-linejoin="round"/>
<path d="M2 21.4719V15.5488C2 14.1534 3.13121 13.0222 4.52654 13.0222H15.4149" stroke="#0C6D45" stroke-width="3.15515" stroke-miterlimit="10" stroke-linecap="round" stroke-linejoin="round"/>
<path d="M32.7924 8.85305V7.03052C32.7924 4.25219 30.5608 1.99995 27.8081 1.99995C25.0555 1.99995 22.8239 4.25219 22.8239 7.03052V8.85305H16.4165C15.8636 8.85305 15.4152 9.3056 15.4152 9.86387V16.1809C15.4152 16.739 15.8636 17.1915 16.4165 17.1915H39.1996C39.7527 17.1915 40.2011 16.739 40.2011 16.1809V9.86387C40.2011 9.3056 39.7527 8.85305 39.1996 8.85305H32.7924Z" stroke="#0C6D45" stroke-width="3.15515" stroke-miterlimit="10" stroke-linecap="round" stroke-linejoin="round"/>
<path d="M22.2422 25.65H45.9748" stroke="#0C6D45" stroke-width="3.15515" stroke-miterlimit="10" stroke-linecap="round" stroke-linejoin="round"/>
<path d="M9.64073 32.9109H38.8063" stroke="#0C6D45" stroke-width="3.15515" stroke-miterlimit="10" stroke-linecap="round" stroke-linejoin="round"/>
<path d="M9.64073 40.1719H34.1082" stroke="#0C6D45" stroke-width="3.15515" stroke-miterlimit="10" stroke-linecap="round" stroke-linejoin="round"/>
<path d="M9.64073 47.4327H32.0856" stroke="#0C6D45" stroke-width="3.15515" stroke-miterlimit="10" stroke-linecap="round" stroke-linejoin="round"/>
<path d="M9.64073 54.6936H32.0856" stroke="#0C6D45" stroke-width="3.15515" stroke-miterlimit="10" stroke-linecap="round" stroke-linejoin="round"/>
<path d="M9.64073 61.9542H34.1082" stroke="#0C6D45" stroke-width="3.15515" stroke-miterlimit="10" stroke-linecap="round" stroke-linejoin="round"/>
<path d="M9.64073 69.2147H45.9746" stroke="#0C6D45" stroke-width="3.15515" stroke-miterlimit="10" stroke-linecap="round" stroke-linejoin="round"/>
<path d="M9.64073 76.4758H45.9746" stroke="#0C6D45" stroke-width="3.15515" stroke-miterlimit="10" stroke-linecap="round" stroke-linejoin="round"/>
<path d="M45.454 35.867C48.1596 33.8737 51.5027 32.6958 55.1211 32.6958C64.1315 32.6958 71.436 40.0003 71.436 49.0107C71.436 58.0212 64.1315 65.3257 55.1211 65.3257C46.1106 65.3257 38.8061 58.0212 38.8061 49.0107C38.8061 45.7063 39.7886 42.6312 41.4772 40.0618" stroke="#0C6D45" stroke-width="3.15515" stroke-miterlimit="10" stroke-linecap="round" stroke-linejoin="round"/>
<path d="M52.8452 56.5272C52.1565 56.5272 51.4947 56.2596 50.9995 55.781L46.5765 51.5062C45.5219 50.4867 45.4932 48.8054 46.5125 47.7507C47.5318 46.6962 49.2128 46.667 50.2681 47.6867L52.7373 50.0731L59.8692 42.3486C60.864 41.2709 62.5443 41.2039 63.6222 42.1989C64.6997 43.194 64.7669 44.8743 63.7717 45.952L54.7966 55.6728C54.5479 55.9422 54.2462 56.1572 53.9103 56.3043C53.5745 56.4513 53.2118 56.5272 52.8452 56.5272Z" stroke="#0C6D45" stroke-width="3.15515" stroke-miterlimit="10" stroke-linecap="round" stroke-linejoin="round"/>
</svg>
